{
    "asset" : {
        "generator" : "Khronos Blender glTF 2.0 I/O",
        "version" : "2.0"
    },
    "scene" : 0,
    "scenes" : [
        {
            "name" : "Scene",
            "nodes" : [
                0,
                1,
                2,
                3
            ]
        }
    ],
    "nodes" : [
        {
            "mesh" : 0,
            "name" : "Camera Holder",
            "rotation" : [
                0.7071068286895752,
                0,
                0,
                0.7071067094802856
            ],
            "scale" : [
                0.6517695188522339,
                0.6517695188522339,
                0.6517695188522339
            ],
            "translation" : [
                -2.632914765854366e-05,
                -1.150831699371338,
                0.04686054214835167
            ]
        },
        {
            "mesh" : 1,
            "name" : "Glass",
            "rotation" : [
                0.7071068286895752,
                0,
                0,
                0.7071067094802856
            ],
            "scale" : [
                0.7757478952407837,
                0.7757479548454285,
                0.8943561911582947
            ],
            "translation" : [
                0,
                -0.7538650035858154,
                0.014752286486327648
            ]
        },
        {
            "mesh" : 2,
            "name" : "Base",
            "rotation" : [
                -0.4461895525455475,
                0.5485571622848511,
                0.5485572218894958,
                0.44618943333625793
            ],
            "scale" : [
                0.024080457165837288,
                0.02408045344054699,
                0.024080462753772736
            ],
            "translation" : [
                -0.7416023015975952,
                -0.9445265531539917,
                -0.27658095955848694
            ]
        },
        {
            "mesh" : 3,
            "name" : "Camera",
            "rotation" : [
                0.7071068286895752,
                0,
                0,
                0.7071067094802856
            ],
            "scale" : [
                0.6517695188522339,
                0.6517695188522339,
                0.6517695188522339
            ],
            "translation" : [
                -0.0005487813032232225,
                -1.4282007217407227,
                0.02399330399930477
            ]
        }
    ],
    "materials" : [
        {
            "emissiveFactor" : [
                1,
                1,
                1
            ],
            "emissiveTexture" : {
                "index" : 0,
                "texCoord" : 0
            },
            "name" : "Baked Camera",
            "pbrMetallicRoughness" : {}
        },
        {
            "alphaMode" : "BLEND",
            "emissiveFactor" : [
                0.1564672291278839,
                0.1564672291278839,
                0.1564672291278839
            ],
            "name" : "Glass",
            "pbrMetallicRoughness" : {
                "baseColorFactor" : [
                    0.800000011920929,
                    0.800000011920929,
                    0.800000011920929,
                    0.25748974084854126
                ],
                "metallicFactor" : 0,
                "roughnessFactor" : 0.5
            }
        },
        {
            "emissiveFactor" : [
                1,
                1,
                1
            ],
            "emissiveTexture" : {
                "index" : 1,
                "texCoord" : 0
            },
            "name" : " Baked Base",
            "pbrMetallicRoughness" : {}
        }
    ],
    "meshes" : [
        {
            "name" : "Sphere",
            "primitives" : [
                {
                    "attributes" : {
                        "POSITION" : 0,
                        "NORMAL" : 1,
                        "TEXCOORD_0" : 2
                    },
                    "indices" : 3,
                    "material" : 0
                }
            ]
        },
        {
            "name" : "Sphere.002",
            "primitives" : [
                {
                    "attributes" : {
                        "POSITION" : 4,
                        "NORMAL" : 5,
                        "TEXCOORD_0" : 6
                    },
                    "indices" : 7,
                    "material" : 1
                }
            ]
        },
        {
            "name" : "Cylinder.005",
            "primitives" : [
                {
                    "attributes" : {
                        "POSITION" : 8,
                        "NORMAL" : 9,
                        "TEXCOORD_0" : 10,
                        "TEXCOORD_1" : 11,
                        "TEXCOORD_2" : 12,
                        "TEXCOORD_3" : 13,
                        "TEXCOORD_4" : 14,
                        "TEXCOORD_5" : 15
                    },
                    "indices" : 16,
                    "material" : 2
                }
            ]
        },
        {
            "name" : "Sphere.004",
            "primitives" : [
                {
                    "attributes" : {
                        "POSITION" : 17,
                        "NORMAL" : 18,
                        "TEXCOORD_0" : 19
                    },
                    "indices" : 20,
                    "material" : 0
                }
            ]
        }
    ],
    "textures" : [
        {
            "source" : 0
        },
        {
            "source" : 1
        }
    ],
    "images" : [
        {
            "bufferView" : 4,
            "mimeType" : "image/png",
            "name" : "Cameraholder512.jpg"
        },
        {
            "bufferView" : 18,
            "mimeType" : "image/png",
            "name" : "SamsungBase512.jpg"
        }
    ],
    "accessors" : [
        {
            "bufferView" : 0,
            "componentType" : 5126,
            "count" : 1316,
            "max" : [
                0.9745545983314514,
                0.9759008288383484,
                0.6055854558944702
            ],
            "min" : [
                -0.9749948978424072,
                -1.0164549350738525,
                -0.3691323399543762
            ],
            "type" : "VEC3"
        },
        {
            "bufferView" : 1,
            "componentType" : 5126,
            "count" : 1316,
            "type" : "VEC3"
        },
        {
            "bufferView" : 2,
            "componentType" : 5126,
            "count" : 1316,
            "type" : "VEC2"
        },
        {
            "bufferView" : 3,
            "componentType" : 5123,
            "count" : 4989,
            "type" : "SCALAR"
        },
        {
            "bufferView" : 5,
            "componentType" : 5126,
            "count" : 221,
            "max" : [
                0.9807852506637573,
                0.9807853698730469,
                1
            ],
            "min" : [
                -0.9807848334312439,
                -0.9807853102684021,
                0.19509020447731018
            ],
            "type" : "VEC3"
        },
        {
            "bufferView" : 6,
            "componentType" : 5126,
            "count" : 221,
            "type" : "VEC3"
        },
        {
            "bufferView" : 7,
            "componentType" : 5126,
            "count" : 221,
            "type" : "VEC2"
        },
        {
            "bufferView" : 8,
            "componentType" : 5123,
            "count" : 996,
            "type" : "SCALAR"
        },
        {
            "bufferView" : 9,
            "componentType" : 5126,
            "count" : 7458,
            "max" : [
                31.3214111328125,
                25.380470275878906,
                143.98028564453125
            ],
            "min" : [
                -60.12092971801758,
                -71.0074234008789,
                -0.8881590366363525
            ],
            "type" : "VEC3"
        },
        {
            "bufferView" : 10,
            "componentType" : 5126,
            "count" : 7458,
            "type" : "VEC3"
        },
        {
            "bufferView" : 11,
            "componentType" : 5126,
            "count" : 7458,
            "type" : "VEC2"
        },
        {
            "bufferView" : 12,
            "componentType" : 5126,
            "count" : 7458,
            "type" : "VEC2"
        },
        {
            "bufferView" : 13,
            "componentType" : 5126,
            "count" : 7458,
            "type" : "VEC2"
        },
        {
            "bufferView" : 14,
            "componentType" : 5126,
            "count" : 7458,
            "type" : "VEC2"
        },
        {
            "bufferView" : 15,
            "componentType" : 5126,
            "count" : 7458,
            "type" : "VEC2"
        },
        {
            "bufferView" : 16,
            "componentType" : 5126,
            "count" : 7458,
            "type" : "VEC2"
        },
        {
            "bufferView" : 17,
            "componentType" : 5123,
            "count" : 16578,
            "type" : "SCALAR"
        },
        {
            "bufferView" : 19,
            "componentType" : 5126,
            "count" : 1636,
            "max" : [
                0.26217353343963623,
                0.2946307957172394,
                0.20962046086788177
            ],
            "min" : [
                -0.48906081914901733,
                -0.2936602532863617,
                -0.8093919157981873
            ],
            "type" : "VEC3"
        },
        {
            "bufferView" : 20,
            "componentType" : 5126,
            "count" : 1636,
            "type" : "VEC3"
        },
        {
            "bufferView" : 21,
            "componentType" : 5126,
            "count" : 1636,
            "type" : "VEC2"
        },
        {
            "bufferView" : 22,
            "componentType" : 5123,
            "count" : 4932,
            "type" : "SCALAR"
        }
    ],
    "bufferViews" : [
        {
            "buffer" : 0,
            "byteLength" : 15792,
            "byteOffset" : 0
        },
        {
            "buffer" : 0,
            "byteLength" : 15792,
            "byteOffset" : 15792
        },
        {
            "buffer" : 0,
            "byteLength" : 10528,
            "byteOffset" : 31584
        },
        {
            "buffer" : 0,
            "byteLength" : 9978,
            "byteOffset" : 42112
        },
        {
            "buffer" : 0,
            "byteLength" : 134314,
            "byteOffset" : 52092
        },
        {
            "buffer" : 0,
            "byteLength" : 2652,
            "byteOffset" : 186408
        },
        {
            "buffer" : 0,
            "byteLength" : 2652,
            "byteOffset" : 189060
        },
        {
            "buffer" : 0,
            "byteLength" : 1768,
            "byteOffset" : 191712
        },
        {
            "buffer" : 0,
            "byteLength" : 1992,
            "byteOffset" : 193480
        },
        {
            "buffer" : 0,
            "byteLength" : 89496,
            "byteOffset" : 195472
        },
        {
            "buffer" : 0,
            "byteLength" : 89496,
            "byteOffset" : 284968
        },
        {
            "buffer" : 0,
            "byteLength" : 59664,
            "byteOffset" : 374464
        },
        {
            "buffer" : 0,
            "byteLength" : 59664,
            "byteOffset" : 434128
        },
        {
            "buffer" : 0,
            "byteLength" : 59664,
            "byteOffset" : 493792
        },
        {
            "buffer" : 0,
            "byteLength" : 59664,
            "byteOffset" : 553456
        },
        {
            "buffer" : 0,
            "byteLength" : 59664,
            "byteOffset" : 613120
        },
        {
            "buffer" : 0,
            "byteLength" : 59664,
            "byteOffset" : 672784
        },
        {
            "buffer" : 0,
            "byteLength" : 33156,
            "byteOffset" : 732448
        },
        {
            "buffer" : 0,
            "byteLength" : 525944,
            "byteOffset" : 765604
        },
        {
            "buffer" : 0,
            "byteLength" : 19632,
            "byteOffset" : 1291548
        },
        {
            "buffer" : 0,
            "byteLength" : 19632,
            "byteOffset" : 1311180
        },
        {
            "buffer" : 0,
            "byteLength" : 13088,
            "byteOffset" : 1330812
        },
        {
            "buffer" : 0,
            "byteLength" : 9864,
            "byteOffset" : 1343900
        }
    ],
    "buffers" : [
        {
            "byteLength" : 1353764,
            "uri" : "data:application/octet-stream;base64,"
        }
    ]
}
