{
    "asset" : {
        "generator" : "Khronos Blender glTF 2.0 I/O",
        "version" : "2.0"
    },
    "scene" : 0,
    "scenes" : [
        {
            "name" : "Scene",
            "nodes" : [
                0,
                1
            ]
        }
    ],
    "nodes" : [
        {
            "mesh" : 0,
            "name" : "LiDAR_LP",
            "rotation" : [
                1,
                0,
                0,
                -1.3435885648505064e-07
            ],
            "translation" : [
                -0.030321836471557617,
                0.6614279747009277,
                0
            ]
        },
        {
            "mesh" : 1,
            "name" : "LiDARCAMERAPIECE_LP",
            "rotation" : [
                -0.578986406326294,
                0.4059244990348816,
                -0.4059244990348816,
                0.5789865255355835
            ],
            "scale" : [
                0.6551989912986755,
                1.124781847000122,
                0.6551991701126099
            ],
            "translation" : [
                1.6591300964355469,
                0.020688138902187347,
                0.14888104796409607
            ]
        }
    ],
    "materials" : [
        {
            "emissiveFactor" : [
                1,
                1,
                1
            ],
            "emissiveTexture" : {
                "index" : 0,
                "texCoord" : 0
            },
            "name" : "Material.002",
            "pbrMetallicRoughness" : {
                "baseColorFactor" : [
                    1,
                    1,
                    1,
                    1
                ],
                "metallicFactor" : 1,
                "roughnessFactor" : 1
            }
        },
        {
            "emissiveFactor" : [
                1,
                1,
                1
            ],
            "emissiveTexture" : {
                "index" : 1,
                "texCoord" : 0
            },
            "name" : "Material.003",
            "pbrMetallicRoughness" : {
                "baseColorFactor" : [
                    1,
                    1,
                    1,
                    1
                ],
                "metallicFactor" : 1,
                "roughnessFactor" : 1
            }
        }
    ],
    "meshes" : [
        {
            "name" : "Cube.000",
            "primitives" : [
                {
                    "attributes" : {
                        "POSITION" : 0,
                        "NORMAL" : 1,
                        "TEXCOORD_0" : 2
                    },
                    "indices" : 3,
                    "material" : 0
                }
            ]
        },
        {
            "name" : "Cylinder.005",
            "primitives" : [
                {
                    "attributes" : {
                        "POSITION" : 4,
                        "NORMAL" : 5,
                        "TEXCOORD_0" : 6,
                        "TEXCOORD_1" : 7,
                        "TEXCOORD_2" : 8,
                        "TEXCOORD_3" : 9,
                        "TEXCOORD_4" : 10,
                        "TEXCOORD_5" : 11,
                        "TEXCOORD_6" : 12,
                        "TEXCOORD_7" : 13
                    },
                    "indices" : 14,
                    "material" : 1
                }
            ]
        }
    ],
    "textures" : [
        {
            "source" : 0
        },
        {
            "source" : 1
        }
    ],
    "images" : [
        {
            "bufferView" : 4,
            "mimeType" : "image/png",
            "name" : "Image_0"
        },
        {
            "bufferView" : 16,
            "mimeType" : "image/png",
            "name" : "Image_1"
        }
    ],
    "accessors" : [
        {
            "bufferView" : 0,
            "componentType" : 5126,
            "count" : 1832,
            "max" : [
                2.6383371353149414,
                1.4579591751098633,
                2.8587636947631836
            ],
            "min" : [
                -2.84110689163208,
                -0.6172189712524414,
                -2.8587646484375
            ],
            "type" : "VEC3"
        },
        {
            "bufferView" : 1,
            "componentType" : 5126,
            "count" : 1832,
            "type" : "VEC3"
        },
        {
            "bufferView" : 2,
            "componentType" : 5126,
            "count" : 1832,
            "type" : "VEC2"
        },
        {
            "bufferView" : 3,
            "componentType" : 5123,
            "count" : 5850,
            "type" : "SCALAR"
        },
        {
            "bufferView" : 5,
            "componentType" : 5126,
            "count" : 5838,
            "max" : [
                0.9330127239227295,
                1.2765439748764038,
                1.29258131980896
            ],
            "min" : [
                -1,
                -1.0000001192092896,
                -1.13413667678833
            ],
            "type" : "VEC3"
        },
        {
            "bufferView" : 6,
            "componentType" : 5126,
            "count" : 5838,
            "type" : "VEC3"
        },
        {
            "bufferView" : 7,
            "componentType" : 5126,
            "count" : 5838,
            "type" : "VEC2"
        },
        {
            "bufferView" : 8,
            "componentType" : 5126,
            "count" : 5838,
            "type" : "VEC2"
        },
        {
            "bufferView" : 9,
            "componentType" : 5126,
            "count" : 5838,
            "type" : "VEC2"
        },
        {
            "bufferView" : 10,
            "componentType" : 5126,
            "count" : 5838,
            "type" : "VEC2"
        },
        {
            "bufferView" : 11,
            "componentType" : 5126,
            "count" : 5838,
            "type" : "VEC2"
        },
        {
            "bufferView" : 12,
            "componentType" : 5126,
            "count" : 5838,
            "type" : "VEC2"
        },
        {
            "bufferView" : 13,
            "componentType" : 5126,
            "count" : 5838,
            "type" : "VEC2"
        },
        {
            "bufferView" : 14,
            "componentType" : 5126,
            "count" : 5838,
            "type" : "VEC2"
        },
        {
            "bufferView" : 15,
            "componentType" : 5123,
            "count" : 8181,
            "type" : "SCALAR"
        }
    ],
    "bufferViews" : [
        {
            "buffer" : 0,
            "byteLength" : 21984,
            "byteOffset" : 0
        },
        {
            "buffer" : 0,
            "byteLength" : 21984,
            "byteOffset" : 21984
        },
        {
            "buffer" : 0,
            "byteLength" : 14656,
            "byteOffset" : 43968
        },
        {
            "buffer" : 0,
            "byteLength" : 11700,
            "byteOffset" : 58624
        },
        {
            "buffer" : 0,
            "byteLength" : 167411,
            "byteOffset" : 70324
        },
        {
            "buffer" : 0,
            "byteLength" : 70056,
            "byteOffset" : 237736
        },
        {
            "buffer" : 0,
            "byteLength" : 70056,
            "byteOffset" : 307792
        },
        {
            "buffer" : 0,
            "byteLength" : 46704,
            "byteOffset" : 377848
        },
        {
            "buffer" : 0,
            "byteLength" : 46704,
            "byteOffset" : 424552
        },
        {
            "buffer" : 0,
            "byteLength" : 46704,
            "byteOffset" : 471256
        },
        {
            "buffer" : 0,
            "byteLength" : 46704,
            "byteOffset" : 517960
        },
        {
            "buffer" : 0,
            "byteLength" : 46704,
            "byteOffset" : 564664
        },
        {
            "buffer" : 0,
            "byteLength" : 46704,
            "byteOffset" : 611368
        },
        {
            "buffer" : 0,
            "byteLength" : 46704,
            "byteOffset" : 658072
        },
        {
            "buffer" : 0,
            "byteLength" : 46704,
            "byteOffset" : 704776
        },
        {
            "buffer" : 0,
            "byteLength" : 16362,
            "byteOffset" : 751480
        },
        {
            "buffer" : 0,
            "byteLength" : 266820,
            "byteOffset" : 767844
        }
    ],
    "buffers" : [
        {
            "byteLength" : 1034664,
            "uri" : "data:application/octet-stream;base64,"
        }
    ]
}
