{
    "asset" : {
        "generator" : "Khronos Blender glTF 2.0 I/O",
        "version" : "2.0"
    },
    "scene" : 0,
    "scenes" : [
        {
            "name" : "Scene",
            "nodes" : [
                0
            ]
        }
    ],
    "nodes" : [
        {
            "mesh" : 0,
            "name" : "Camera",
            "rotation" : [
                0,
                0,
                -0.7071068286895752,
                0.7071068286895752
            ],
            "scale" : [
                0.016301581636071205,
                0.016301581636071205,
                0.016301581636071205
            ],
            "translation" : [
                1.5600719451904297,
                0.23105700314044952,
                -0.2216164767742157
            ]
        }
    ],
    "materials" : [
        {
            "name" : "Material.003",
            "pbrMetallicRoughness" : {
                "baseColorTexture" : {
                    "index" : 0,
                    "texCoord" : 0
                },
                "roughnessFactor" : 0.5
            }
        },
        {
            "name" : "mAT",
            "pbrMetallicRoughness" : {
                "baseColorTexture" : {
                    "index" : 1,
                    "texCoord" : 0
                },
                "metallicFactor" : 0,
                "roughnessFactor" : 0.5
            }
        }
    ],
    "meshes" : [
        {
            "name" : "Circle.001",
            "primitives" : [
                {
                    "attributes" : {
                        "POSITION" : 0,
                        "NORMAL" : 1,
                        "TEXCOORD_0" : 2
                    },
                    "indices" : 3,
                    "material" : 0
                },
                {
                    "attributes" : {
                        "POSITION" : 4,
                        "NORMAL" : 5,
                        "TEXCOORD_0" : 6
                    },
                    "indices" : 7,
                    "material" : 1
                }
            ]
        }
    ],
    "textures" : [
        {
            "source" : 0
        },
        {
            "source" : 1
        }
    ],
    "images" : [
        {
            "bufferView" : 4,
            "mimeType" : "image/png",
            "name" : "LensDiffuse"
        },
        {
            "bufferView" : 9,
            "mimeType" : "image/png",
            "name" : "CCTVDIFFUSE"
        }
    ],
    "accessors" : [
        {
            "bufferView" : 0,
            "componentType" : 5126,
            "count" : 10371,
            "max" : [
                31.736501693725586,
                2.4746360778808594,
                31.15738296508789
            ],
            "min" : [
                -3.3886947631835938,
                -2.0067899227142334,
                -3.9678173065185547
            ],
            "type" : "VEC3"
        },
        {
            "bufferView" : 1,
            "componentType" : 5126,
            "count" : 10371,
            "type" : "VEC3"
        },
        {
            "bufferView" : 2,
            "componentType" : 5126,
            "count" : 10371,
            "type" : "VEC2"
        },
        {
            "bufferView" : 3,
            "componentType" : 5123,
            "count" : 56196,
            "type" : "SCALAR"
        },
        {
            "bufferView" : 5,
            "componentType" : 5126,
            "count" : 1439,
            "max" : [
                49.987098693847656,
                24.61492919921875,
                50.39259719848633
            ],
            "min" : [
                -19.38566780090332,
                -191.5340118408203,
                -22.719768524169922
            ],
            "type" : "VEC3"
        },
        {
            "bufferView" : 6,
            "componentType" : 5126,
            "count" : 1439,
            "type" : "VEC3"
        },
        {
            "bufferView" : 7,
            "componentType" : 5126,
            "count" : 1439,
            "type" : "VEC2"
        },
        {
            "bufferView" : 8,
            "componentType" : 5123,
            "count" : 2544,
            "type" : "SCALAR"
        }
    ],
    "bufferViews" : [
        {
            "buffer" : 0,
            "byteLength" : 124452,
            "byteOffset" : 0
        },
        {
            "buffer" : 0,
            "byteLength" : 124452,
            "byteOffset" : 124452
        },
        {
            "buffer" : 0,
            "byteLength" : 82968,
            "byteOffset" : 248904
        },
        {
            "buffer" : 0,
            "byteLength" : 112392,
            "byteOffset" : 331872
        },
        {
            "buffer" : 0,
            "byteLength" : 24754,
            "byteOffset" : 444264
        },
        {
            "buffer" : 0,
            "byteLength" : 17268,
            "byteOffset" : 469020
        },
        {
            "buffer" : 0,
            "byteLength" : 17268,
            "byteOffset" : 486288
        },
        {
            "buffer" : 0,
            "byteLength" : 11512,
            "byteOffset" : 503556
        },
        {
            "buffer" : 0,
            "byteLength" : 5088,
            "byteOffset" : 515068
        },
        {
            "buffer" : 0,
            "byteLength" : 81282,
            "byteOffset" : 520156
        }
    ],
    "buffers" : [
        {
            "byteLength" : 601440,
            "uri" : "data:application/octet-stream;base64,"
        }
    ]
}
