{
    "asset" : {
        "generator" : "Khronos glTF Blender I/O v1.0.5",
        "version" : "2.0"
    },
    "scene" : 0,
    "scenes" : [
        {
            "name" : "Scene",
            "nodes" : [
                0
            ]
        }
    ],
    "nodes" : [
        {
            "mesh" : 0,
            "name" : "CameraLP",
            "rotation" : [
                0.7009848356246948,
                0.09284550696611404,
                0.09284549951553345,
                0.70098477602005
            ],
            "scale" : [
                0.9232743978500366,
                0.9232743978500366,
                0.9232743978500366
            ],
            "translation" : [
                0,
                0,
                0.030687570571899414
            ]
        }
    ],
    "materials" : [
        {
            "doubleSided" : true,
            "emissiveFactor" : [
                1,
                1,
                1
            ],
            "emissiveTexture" : {
                "index" : 0,
                "texCoord" : 0
            },
            "name" : "Bakedbody",
            "pbrMetallicRoughness" : {}
        }
    ],
    "meshes" : [
        {
            "name" : "Circle.005",
            "primitives" : [
                {
                    "attributes" : {
                        "POSITION" : 0,
                        "NORMAL" : 1,
                        "TEXCOORD_0" : 2
                    },
                    "indices" : 3,
                    "material" : 0
                }
            ]
        }
    ],
    "textures" : [
        {
            "source" : 0
        }
    ],
    "images" : [
        {
            "bufferView" : 4,
            "mimeType" : "image/jpeg",
            "name" : "CameraTex"
        }
    ],
    "accessors" : [
        {
            "bufferView" : 0,
            "componentType" : 5126,
            "count" : 4036,
            "max" : [
                1.0771903991699219,
                3.1328518390655518,
                1.0771905183792114
            ],
            "min" : [
                -1.0771898031234741,
                -1.58134126663208,
                -1.0771896839141846
            ],
            "type" : "VEC3"
        },
        {
            "bufferView" : 1,
            "componentType" : 5126,
            "count" : 4036,
            "type" : "VEC3"
        },
        {
            "bufferView" : 2,
            "componentType" : 5126,
            "count" : 4036,
            "type" : "VEC2"
        },
        {
            "bufferView" : 3,
            "componentType" : 5123,
            "count" : 16374,
            "type" : "SCALAR"
        }
    ],
    "bufferViews" : [
        {
            "buffer" : 0,
            "byteLength" : 48432,
            "byteOffset" : 0
        },
        {
            "buffer" : 0,
            "byteLength" : 48432,
            "byteOffset" : 48432
        },
        {
            "buffer" : 0,
            "byteLength" : 32288,
            "byteOffset" : 96864
        },
        {
            "buffer" : 0,
            "byteLength" : 32748,
            "byteOffset" : 129152
        },
        {
            "buffer" : 0,
            "byteLength" : 144475,
            "byteOffset" : 161900
        }
    ],
    "buffers" : [
        {
            "byteLength" : 306376,
            "uri" : "data:application/octet-stream;base64,"
        }
    ]
}
