{
    "asset" : {
        "generator" : "Khronos Blender glTF 2.0 I/O",
        "version" : "2.0"
    },
    "scene" : 0,
    "scenes" : [
        {
            "name" : "Scene",
            "nodes" : [
                0,
                1,
                2
            ]
        }
    ],
    "nodes" : [
        {
            "mesh" : 0,
            "name" : "BezierCurve.000",
            "rotation" : [
                0.7071068286895752,
                0,
                0,
                0.7071067094802856
            ],
            "translation" : [
                -1.3776732683181763,
                0.09155315160751343,
                -1.1443527936935425
            ]
        },
        {
            "mesh" : 1,
            "name" : "Body.001",
            "rotation" : [
                1,
                0,
                0,
                -1.3435885648505064e-07
            ],
            "translation" : [
                -2.0840368270874023,
                0.09155331552028656,
                -1.1817046403884888
            ]
        },
        {
            "mesh" : 2,
            "name" : "Body.002",
            "rotation" : [
                1,
                0,
                0,
                -1.3435885648505064e-07
            ],
            "translation" : [
                -2.0840368270874023,
                0.09155331552028656,
                -1.1817046403884888
            ]
        }
    ],
    "materials" : [
        {
            "emissiveFactor" : [
                1,
                1,
                1
            ],
            "emissiveTexture" : {
                "index" : 0,
                "texCoord" : 0
            },
            "name" : "Black.001",
            "pbrMetallicRoughness" : {}
        },
        {
            "emissiveFactor" : [
                1,
                1,
                1
            ],
            "emissiveTexture" : {
                "index" : 1,
                "texCoord" : 0
            },
            "name" : "BodyMat.001",
            "pbrMetallicRoughness" : {}
        }
    ],
    "meshes" : [
        {
            "name" : "CUBezierCurve.004",
            "primitives" : [
                {
                    "attributes" : {
                        "POSITION" : 0,
                        "NORMAL" : 1,
                        "TEXCOORD_0" : 2
                    },
                    "indices" : 3,
                    "material" : 0
                }
            ]
        },
        {
            "name" : "CUBezierCurve.005",
            "primitives" : [
                {
                    "attributes" : {
                        "POSITION" : 4,
                        "NORMAL" : 5,
                        "TEXCOORD_0" : 6
                    },
                    "indices" : 7,
                    "material" : 1
                }
            ]
        },
        {
            "name" : "CUBezierCurve.001",
            "primitives" : [
                {
                    "attributes" : {
                        "POSITION" : 8,
                        "NORMAL" : 9,
                        "TEXCOORD_0" : 10
                    },
                    "indices" : 11,
                    "material" : 1
                }
            ]
        }
    ],
    "textures" : [
        {
            "source" : 0
        },
        {
            "source" : 1
        }
    ],
    "images" : [
        {
            "bufferView" : 4,
            "mimeType" : "image/png",
            "name" : "CAMERA1512.JPG"
        },
        {
            "bufferView" : 9,
            "mimeType" : "image/png",
            "name" : "CAMERALAEL756.JPG"
        }
    ],
    "accessors" : [
        {
            "bufferView" : 0,
            "componentType" : 5126,
            "count" : 5158,
            "max" : [
                -2.7678236961364746,
                1.8363088369369507,
                0.898587703704834
            ],
            "min" : [
                -4.034444808959961,
                0.5270072221755981,
                -0.7070194482803345
            ],
            "type" : "VEC3"
        },
        {
            "bufferView" : 1,
            "componentType" : 5126,
            "count" : 5158,
            "type" : "VEC3"
        },
        {
            "bufferView" : 2,
            "componentType" : 5126,
            "count" : 5158,
            "type" : "VEC2"
        },
        {
            "bufferView" : 3,
            "componentType" : 5123,
            "count" : 14130,
            "type" : "SCALAR"
        },
        {
            "bufferView" : 5,
            "componentType" : 5126,
            "count" : 6373,
            "max" : [
                3.345393419265747,
                1.4077401161193848,
                0.0348379909992218
            ],
            "min" : [
                -2.068192720413208,
                -2.0483322143554688,
                -2.396740674972534
            ],
            "type" : "VEC3"
        },
        {
            "bufferView" : 6,
            "componentType" : 5126,
            "count" : 6373,
            "type" : "VEC3"
        },
        {
            "bufferView" : 7,
            "componentType" : 5126,
            "count" : 6373,
            "type" : "VEC2"
        },
        {
            "bufferView" : 8,
            "componentType" : 5123,
            "count" : 9600,
            "type" : "SCALAR"
        },
        {
            "bufferView" : 10,
            "componentType" : 5126,
            "count" : 4502,
            "max" : [
                2.567093849182129,
                0.03653504699468613,
                0.13665319979190826
            ],
            "min" : [
                -0.3173946142196655,
                -2.0531563758850098,
                -2.758347272872925
            ],
            "type" : "VEC3"
        },
        {
            "bufferView" : 11,
            "componentType" : 5126,
            "count" : 4502,
            "type" : "VEC3"
        },
        {
            "bufferView" : 12,
            "componentType" : 5126,
            "count" : 4502,
            "type" : "VEC2"
        },
        {
            "bufferView" : 13,
            "componentType" : 5123,
            "count" : 21468,
            "type" : "SCALAR"
        }
    ],
    "bufferViews" : [
        {
            "buffer" : 0,
            "byteLength" : 61896,
            "byteOffset" : 0
        },
        {
            "buffer" : 0,
            "byteLength" : 61896,
            "byteOffset" : 61896
        },
        {
            "buffer" : 0,
            "byteLength" : 41264,
            "byteOffset" : 123792
        },
        {
            "buffer" : 0,
            "byteLength" : 28260,
            "byteOffset" : 165056
        },
        {
            "buffer" : 0,
            "byteLength" : 90651,
            "byteOffset" : 193316
        },
        {
            "buffer" : 0,
            "byteLength" : 76476,
            "byteOffset" : 283968
        },
        {
            "buffer" : 0,
            "byteLength" : 76476,
            "byteOffset" : 360444
        },
        {
            "buffer" : 0,
            "byteLength" : 50984,
            "byteOffset" : 436920
        },
        {
            "buffer" : 0,
            "byteLength" : 19200,
            "byteOffset" : 487904
        },
        {
            "buffer" : 0,
            "byteLength" : 193776,
            "byteOffset" : 507104
        },
        {
            "buffer" : 0,
            "byteLength" : 54024,
            "byteOffset" : 700880
        },
        {
            "buffer" : 0,
            "byteLength" : 54024,
            "byteOffset" : 754904
        },
        {
            "buffer" : 0,
            "byteLength" : 36016,
            "byteOffset" : 808928
        },
        {
            "buffer" : 0,
            "byteLength" : 42936,
            "byteOffset" : 844944
        }
    ],
    "buffers" : [
        {
            "byteLength" : 887880,
            "uri" : "data:application/octet-stream;base64,"
        }
    ]
}
