{
    "asset" : {
        "generator" : "Khronos Blender glTF 2.0 I/O",
        "version" : "2.0"
    },
    "scene" : 0,
    "scenes" : [
        {
            "name" : "Scene",
            "nodes" : [
                0,
                1,
                2,
                3
            ]
        }
    ],
    "nodes" : [
        {
            "mesh" : 0,
            "name" : "Rim",
            "rotation" : [
                -0.6719826459884644,
                -0.22008921205997467,
                0.22008922696113586,
                0.6719827651977539
            ],
            "scale" : [
                0.065285824239254,
                0.065285824239254,
                0.0652858316898346
            ],
            "translation" : [
                0.6645519733428955,
                0.8621912002563477,
                0.005814370699226856
            ]
        },
        {
            "mesh" : 1,
            "name" : "CameraHolder",
            "rotation" : [
                -0.6719826459884644,
                -0.22008921205997467,
                0.22008922696113586,
                0.6719827651977539
            ],
            "scale" : [
                0.065285824239254,
                0.065285824239254,
                0.0652858316898346
            ],
            "translation" : [
                0.01825118064880371,
                0.8796783685684204,
                -0.006321036722511053
            ]
        },
        {
            "mesh" : 2,
            "name" : "Lens",
            "rotation" : [
                -0.7071065902709961,
                0,
                0,
                0.7071069478988647
            ],
            "scale" : [
                0.052336547523736954,
                0.05233654007315636,
                0.04403460770845413
            ],
            "translation" : [
                0.08118844032287598,
                0.510679304599762,
                -0.013271724805235863
            ]
        },
        {
            "mesh" : 3,
            "name" : "Glass",
            "rotation" : [
                0.7071068286895752,
                0,
                0,
                0.7071067094802856
            ],
            "scale" : [
                1,
                1,
                1.019273042678833
            ],
            "translation" : [
                -0.07092499732971191,
                0.7252978086471558,
                -0.021441584452986717
            ]
        }
    ],
    "materials" : [
        {
            "emissiveFactor" : [
                1,
                1,
                1
            ],
            "emissiveTexture" : {
                "index" : 0,
                "texCoord" : 0
            },
            "name" : "Baked Rim.002",
            "pbrMetallicRoughness" : {}
        },
        {
            "emissiveFactor" : [
                1,
                1,
                1
            ],
            "emissiveTexture" : {
                "index" : 1,
                "texCoord" : 0
            },
            "name" : "Baked Camera Holder.002",
            "pbrMetallicRoughness" : {}
        },
        {
            "emissiveFactor" : [
                1,
                1,
                1
            ],
            "emissiveTexture" : {
                "index" : 2,
                "texCoord" : 0
            },
            "name" : "Camera Baked.002",
            "pbrMetallicRoughness" : {}
        },
        {
            "alphaMode" : "BLEND",
            "emissiveFactor" : [
                0.1564672291278839,
                0.1564672291278839,
                0.1564672291278839
            ],
            "name" : "Material.002",
            "pbrMetallicRoughness" : {
                "baseColorFactor" : [
                    0.800000011920929,
                    0.800000011920929,
                    0.800000011920929,
                    0.25748974084854126
                ],
                "metallicFactor" : 0,
                "roughnessFactor" : 0.5
            }
        }
    ],
    "meshes" : [
        {
            "name" : "Cylinder.003",
            "primitives" : [
                {
                    "attributes" : {
                        "POSITION" : 0,
                        "NORMAL" : 1,
                        "TEXCOORD_0" : 2
                    },
                    "indices" : 3,
                    "material" : 0
                }
            ]
        },
        {
            "name" : "Cylinder.004",
            "primitives" : [
                {
                    "attributes" : {
                        "POSITION" : 4,
                        "NORMAL" : 5,
                        "TEXCOORD_0" : 6
                    },
                    "indices" : 7,
                    "material" : 1
                }
            ]
        },
        {
            "name" : "Cylinder.005",
            "primitives" : [
                {
                    "attributes" : {
                        "POSITION" : 8,
                        "NORMAL" : 9,
                        "TEXCOORD_0" : 10,
                        "TEXCOORD_1" : 11,
                        "TEXCOORD_2" : 12
                    },
                    "indices" : 13,
                    "material" : 2
                }
            ]
        },
        {
            "name" : "Circle.001",
            "primitives" : [
                {
                    "attributes" : {
                        "POSITION" : 14,
                        "NORMAL" : 15,
                        "TEXCOORD_0" : 16
                    },
                    "indices" : 17,
                    "material" : 3
                }
            ]
        }
    ],
    "textures" : [
        {
            "source" : 0
        },
        {
            "source" : 1
        },
        {
            "source" : 2
        }
    ],
    "images" : [
        {
            "bufferView" : 4,
            "mimeType" : "image/png",
            "name" : "HitachiLabel512.png"
        },
        {
            "bufferView" : 9,
            "mimeType" : "image/png",
            "name" : "Dome756.jpg"
        },
        {
            "bufferView" : 16,
            "mimeType" : "image/png",
            "name" : "Lense256.png"
        }
    ],
    "accessors" : [
        {
            "bufferView" : 0,
            "componentType" : 5126,
            "count" : 5305,
            "max" : [
                26.33767318725586,
                27.691692352294922,
                39.43084716796875
            ],
            "min" : [
                -23.642892837524414,
                -27.258991241455078,
                -2.0588834285736084
            ],
            "type" : "VEC3"
        },
        {
            "bufferView" : 1,
            "componentType" : 5126,
            "count" : 5305,
            "type" : "VEC3"
        },
        {
            "bufferView" : 2,
            "componentType" : 5126,
            "count" : 5305,
            "type" : "VEC2"
        },
        {
            "bufferView" : 3,
            "componentType" : 5123,
            "count" : 9387,
            "type" : "SCALAR"
        },
        {
            "bufferView" : 5,
            "componentType" : 5126,
            "count" : 2922,
            "max" : [
                16.092323303222656,
                15.82050609588623,
                14.17958927154541
            ],
            "min" : [
                -13.26679801940918,
                -15.70028018951416,
                -12.941499710083008
            ],
            "type" : "VEC3"
        },
        {
            "bufferView" : 6,
            "componentType" : 5126,
            "count" : 2922,
            "type" : "VEC3"
        },
        {
            "bufferView" : 7,
            "componentType" : 5126,
            "count" : 2922,
            "type" : "VEC2"
        },
        {
            "bufferView" : 8,
            "componentType" : 5123,
            "count" : 8706,
            "type" : "SCALAR"
        },
        {
            "bufferView" : 10,
            "componentType" : 5126,
            "count" : 1999,
            "max" : [
                7.511300086975098,
                7.46652889251709,
                12.86722469329834
            ],
            "min" : [
                -7.5043253898620605,
                -7.46652364730835,
                -10.536579132080078
            ],
            "type" : "VEC3"
        },
        {
            "bufferView" : 11,
            "componentType" : 5126,
            "count" : 1999,
            "type" : "VEC3"
        },
        {
            "bufferView" : 12,
            "componentType" : 5126,
            "count" : 1999,
            "type" : "VEC2"
        },
        {
            "bufferView" : 13,
            "componentType" : 5126,
            "count" : 1999,
            "type" : "VEC2"
        },
        {
            "bufferView" : 14,
            "componentType" : 5126,
            "count" : 1999,
            "type" : "VEC2"
        },
        {
            "bufferView" : 15,
            "componentType" : 5123,
            "count" : 4980,
            "type" : "SCALAR"
        },
        {
            "bufferView" : 17,
            "componentType" : 5126,
            "count" : 114,
            "max" : [
                1.533252239227295,
                1.5064725875854492,
                0.7299485206604004
            ],
            "min" : [
                -1.468492865562439,
                -1.4944316148757935,
                -0.6844910979270935
            ],
            "type" : "VEC3"
        },
        {
            "bufferView" : 18,
            "componentType" : 5126,
            "count" : 114,
            "type" : "VEC3"
        },
        {
            "bufferView" : 19,
            "componentType" : 5126,
            "count" : 114,
            "type" : "VEC2"
        },
        {
            "bufferView" : 20,
            "componentType" : 5123,
            "count" : 549,
            "type" : "SCALAR"
        }
    ],
    "bufferViews" : [
        {
            "buffer" : 0,
            "byteLength" : 63660,
            "byteOffset" : 0
        },
        {
            "buffer" : 0,
            "byteLength" : 63660,
            "byteOffset" : 63660
        },
        {
            "buffer" : 0,
            "byteLength" : 42440,
            "byteOffset" : 127320
        },
        {
            "buffer" : 0,
            "byteLength" : 18774,
            "byteOffset" : 169760
        },
        {
            "buffer" : 0,
            "byteLength" : 69406,
            "byteOffset" : 188536
        },
        {
            "buffer" : 0,
            "byteLength" : 35064,
            "byteOffset" : 257944
        },
        {
            "buffer" : 0,
            "byteLength" : 35064,
            "byteOffset" : 293008
        },
        {
            "buffer" : 0,
            "byteLength" : 23376,
            "byteOffset" : 328072
        },
        {
            "buffer" : 0,
            "byteLength" : 17412,
            "byteOffset" : 351448
        },
        {
            "buffer" : 0,
            "byteLength" : 196309,
            "byteOffset" : 368860
        },
        {
            "buffer" : 0,
            "byteLength" : 23988,
            "byteOffset" : 565172
        },
        {
            "buffer" : 0,
            "byteLength" : 23988,
            "byteOffset" : 589160
        },
        {
            "buffer" : 0,
            "byteLength" : 15992,
            "byteOffset" : 613148
        },
        {
            "buffer" : 0,
            "byteLength" : 15992,
            "byteOffset" : 629140
        },
        {
            "buffer" : 0,
            "byteLength" : 15992,
            "byteOffset" : 645132
        },
        {
            "buffer" : 0,
            "byteLength" : 9960,
            "byteOffset" : 661124
        },
        {
            "buffer" : 0,
            "byteLength" : 32497,
            "byteOffset" : 671084
        },
        {
            "buffer" : 0,
            "byteLength" : 1368,
            "byteOffset" : 703584
        },
        {
            "buffer" : 0,
            "byteLength" : 1368,
            "byteOffset" : 704952
        },
        {
            "buffer" : 0,
            "byteLength" : 912,
            "byteOffset" : 706320
        },
        {
            "buffer" : 0,
            "byteLength" : 1098,
            "byteOffset" : 707232
        }
    ],
    "buffers" : [
        {
            "byteLength" : 708332,
            "uri" : "data:application/octet-stream;base64,"
        }
    ]
}
